<svg width="77" height="28" viewBox="0 0 77 28" fill="none" xmlns="http://www.w3.org/2000/svg">
<g clip-path="url(#clip0_1005_42)">
<path d="M22.4234 13.0774C22.4234 13.0774 22.4234 13.0851 22.4234 13.0897L21.4109 17.4442C21.3563 17.6905 21.1083 17.8711 20.8213 17.8711H19.5997C19.5092 17.8711 19.428 17.9308 19.403 18.0165C18.2751 21.8094 16.7477 24.4167 14.7305 25.9819C13.0142 27.3147 10.8987 27.9359 8.07332 27.9359C5.53341 27.9359 3.82193 27.1264 2.36945 25.5291C0.450472 23.4176 -0.343639 19.9612 0.136884 15.7964C1.00432 7.97779 5.09501 0.0888352 12.9753 0.0888352C15.3717 0.0674145 17.2532 0.80031 18.5622 2.26304C19.946 3.80993 20.6496 6.14021 20.6527 9.1896C20.648 9.46655 20.4156 9.68993 20.1363 9.68993H14.3638C14.1595 9.68993 13.9769 9.50786 13.98 9.30742C13.9332 7.19899 13.3013 6.1708 12.047 6.1708C9.83472 6.1708 8.52888 9.14829 7.83618 10.7992C6.86889 13.105 6.37744 15.6082 6.47417 18.1022C6.51942 19.2635 6.7082 20.8961 7.82058 21.5724C8.80659 22.1721 10.2138 21.7743 11.0657 21.1103C11.9175 20.4462 12.6024 19.2972 12.891 18.2491C12.9316 18.1037 12.9348 17.9905 12.8957 17.94C12.8552 17.888 12.7428 17.8757 12.657 17.8757H11.1749C11.0157 17.8757 10.8582 17.8039 10.763 17.6875C10.6834 17.5896 10.6522 17.4687 10.6803 17.3494L11.6944 12.9871C11.7443 12.7639 11.9487 12.5955 12.1999 12.565V12.5542H21.9273C21.9508 12.5542 21.9742 12.5542 21.996 12.5588C22.2488 12.5909 22.4267 12.8235 22.422 13.0774H22.4234Z" fill="#0E100F"/>
<path d="M39.1731 8.07257C39.1684 8.34492 38.9359 8.5683 38.6567 8.5683H33.3397C32.9918 8.5683 32.7 8.2883 32.7 7.9471C32.7 6.40939 32.1634 5.6612 31.0651 5.6612C29.9667 5.6612 29.2584 6.32983 29.2381 7.49727C29.2148 8.79935 29.9573 9.98207 32.0729 12.0155C34.8577 14.6044 35.9732 16.8979 35.9202 19.929C35.8328 24.8313 32.4691 28 27.3519 28C24.7386 28 22.7417 27.3069 21.414 25.9406C20.0661 24.5527 19.4482 22.5162 19.5778 19.8876C19.5839 19.6153 19.8148 19.3935 20.0941 19.3935H25.5936C25.7434 19.3935 25.8916 19.4653 25.9915 19.5878C26.0773 19.6933 26.1131 19.8234 26.0914 19.9458C26.0304 20.8944 26.1974 21.6028 26.5734 21.9945C26.8153 22.2485 27.1507 22.3771 27.5703 22.3771C28.586 22.3771 29.182 21.6656 29.2038 20.4262C29.2225 19.3552 28.8808 18.4158 27.0181 16.517C24.6123 14.1867 22.4546 11.7799 22.5217 7.99453C22.5607 5.80044 23.4406 3.79301 24.9993 2.34251C26.6467 0.809399 28.9012 0 31.5175 0C34.1385 0.0183606 36.1246 0.758907 37.421 2.20175C38.6489 3.56961 39.2402 5.54492 39.1747 8.07257H39.1731Z" fill="#0E100F"/>
<path d="M55.6544 27.0771L55.6887 1.00655C55.6933 0.732665 55.4703 0.509277 55.1911 0.509277H46.9613C46.6851 0.509277 46.5635 0.744905 46.4839 0.900971L34.5691 26.9181V26.9227C34.5691 26.9227 34.5659 26.9272 34.5644 26.9287C34.4318 27.2485 34.683 27.5913 35.0325 27.5913H40.7846C41.0951 27.5913 41.3011 27.4979 41.4025 27.3036L42.5445 24.5832C42.6849 24.2205 42.7115 24.1869 43.1108 24.1869H48.6072C48.9894 24.1869 48.9973 24.1945 48.991 24.5648L48.8678 27.0939C48.8631 27.3679 49.0862 27.5913 49.3655 27.5913H55.177C55.3252 27.5913 55.4641 27.5301 55.556 27.4215C55.6387 27.325 55.6731 27.2027 55.6544 27.0771ZM45.4729 18.3726C45.4198 18.3726 45.3777 18.3712 45.3435 18.3681C45.2576 18.3605 45.1998 18.2793 45.2217 18.1967C45.2326 18.1584 45.2483 18.108 45.2717 18.0452L49.3936 7.93922C49.4294 7.83977 49.4746 7.74184 49.5215 7.64698C49.5886 7.51081 49.6697 7.50162 49.6946 7.60261C49.7165 7.68676 49.2219 17.9794 49.2219 17.9794C49.183 18.365 49.1658 18.3804 48.782 18.4125L45.4776 18.3742H45.4698L45.4729 18.3726Z" fill="#0E100F"/>
<path d="M67.3772 0.509407H63.0088C62.778 0.509407 62.5189 0.630282 62.4581 0.902631C62.4581 0.902631 56.3782 27.0605 56.3782 27.0635C56.3517 27.1844 56.3798 27.3038 56.4609 27.4032C56.556 27.5194 56.7136 27.5914 56.8728 27.5914H62.3333C62.6265 27.5914 62.8279 27.4491 62.8824 27.2012C62.8824 27.2012 63.5439 24.2451 63.5455 24.236C63.5923 24.005 63.5111 23.826 63.3021 23.7172C63.2039 23.6668 63.1055 23.6163 63.0088 23.5658L62.0618 23.0777L61.1194 22.5912C60.9978 22.5284 60.8761 22.4657 60.7559 22.4029C60.6951 22.3724 60.6577 22.3112 60.6593 22.2439C60.6608 22.1444 60.7451 22.0633 60.8464 22.0633L63.8388 22.0771C64.7343 22.0816 65.6298 22.0189 66.5098 21.8583C72.7066 20.7245 76.8222 15.8053 76.9409 9.11291C77.0422 3.40121 73.8253 0.506348 67.3819 0.506348L67.3772 0.509407ZM65.8903 16.0777H65.7734C65.5113 16.0777 65.4644 16.0486 65.4566 16.0394C65.4519 16.0333 67.1822 8.50547 67.1838 8.49476C67.2274 8.27749 67.2259 8.15202 67.0901 8.07858C66.9169 7.98372 64.3911 6.66328 64.3911 6.66328C64.3302 6.63115 64.2943 6.56995 64.296 6.50263C64.2974 6.4047 64.3801 6.32361 64.4816 6.32361H68.4756C69.719 6.36187 70.4117 7.4635 70.379 9.34547C70.3212 12.6045 68.7579 15.9629 65.8903 16.0777Z" fill="#0E100F"/>
<path d="M71.8208 27.5917C72.7194 27.5917 73.4229 26.9139 73.4229 26.0005C73.4229 25.087 72.7194 24.4092 71.8208 24.4092C70.9221 24.4092 70.2107 25.087 70.2107 26.0005C70.2107 26.9139 70.9205 27.5917 71.8208 27.5917ZM70.5928 25.9943C70.5928 25.2186 71.0625 24.7106 71.8208 24.7106C72.5789 24.7106 73.0408 25.2171 73.0408 25.9943C73.0408 26.7716 72.5789 27.2826 71.8208 27.2826C71.0625 27.2826 70.5928 26.7762 70.5928 25.9943ZM71.1171 26.8481H71.6272V26.2361H71.7755C72.1577 26.2361 71.9908 26.7762 72.0844 26.8481H72.6133V26.822C72.5134 26.7961 72.6741 26.1183 72.2311 26.0464V26.0386C72.4464 25.9943 72.5852 25.8413 72.5852 25.6118C72.5852 25.2829 72.3433 25.1053 71.9534 25.1053H71.1141V26.8481H71.1171ZM71.6272 25.8674V25.4588H71.802C71.9767 25.4588 72.0766 25.5123 72.0766 25.6623C72.0766 25.8 71.9767 25.8658 71.802 25.8658H71.6272V25.8674Z" fill="#0E100F"/>
</g>
<defs>
<clipPath id="clip0_1005_42">
<rect width="77" height="28" fill="white"/>
</clipPath>
</defs>
</svg>
