<svg width="139" height="103" viewBox="0 0 139 103" fill="none" xmlns="http://www.w3.org/2000/svg">
<path d="M138.031 14.3303L138.031 0.412111L81.311 0.412113C75.474 0.412114 70.7421 5.14396 70.7421 10.981L70.7421 19.7884L71.0009 19.7884C72.8023 16.5339 76.2709 14.3303 80.2541 14.3303L138.031 14.3303Z" fill="#0B0BCA"/>
<path d="M124.643 30.536L124.643 16.6177L81.311 16.6177C75.474 16.6177 70.7421 21.3496 70.7421 27.1866L70.7421 35.994L71.0009 35.994C72.8023 32.7395 76.2709 30.536 80.2541 30.536L124.643 30.536Z" fill="#0B0BCA"/>
<path d="M111.256 46.7416L111.256 32.8234L81.311 32.8234C75.474 32.8234 70.7421 37.5552 70.7421 43.3922L70.7421 52.1997L71.0009 52.1997C72.8023 48.9451 76.2709 46.7416 80.2541 46.7416L111.256 46.7416Z" fill="#0B0BCA"/>
<path d="M97.8689 62.9472L97.8689 49.029L81.311 49.029C75.474 49.029 70.7421 53.7608 70.7421 59.5979L70.7421 68.053L71.2049 68.053C73.0563 64.9927 76.4163 62.9472 80.2541 62.9472L97.8689 62.9472Z" fill="#0B0BCA"/>
<path d="M84.4816 74.6879L84.4816 65.2345L81.311 65.2345C75.4739 65.2345 70.7421 69.9664 70.7421 75.8034L70.7421 86.02L71.2277 86.02C74.1042 80.8079 78.8235 76.7459 84.4816 74.6879Z" fill="#0B0BCA"/>
<path d="M0.843385 88.2981L0.843385 102.216L57.5631 102.216C63.4001 102.216 68.1319 97.4844 68.1319 91.6474L68.1319 82.84L67.8732 82.84C66.0717 86.0946 62.6032 88.2981 58.62 88.2981L0.843385 88.2981Z" fill="#0B0BCA"/>
<path d="M14.2306 72.0925L14.2306 86.0107L57.5631 86.0107C63.4001 86.0107 68.1319 81.2788 68.1319 75.4418L68.1319 66.6344L67.8732 66.6344C66.0717 69.8889 62.6032 72.0925 58.62 72.0925L14.2306 72.0925Z" fill="#0B0BCA"/>
<path d="M27.6179 55.8868L27.6179 69.8051L57.5631 69.8051C63.4001 69.8051 68.1319 65.0732 68.1319 59.2362L68.1319 50.4288L67.8732 50.4288C66.0717 53.6833 62.6032 55.8868 58.62 55.8868L27.6179 55.8868Z" fill="#0B0BCA"/>
<path d="M41.0051 39.6812L41.0051 53.5994L57.5631 53.5994C63.4001 53.5994 68.1319 48.8676 68.1319 43.0305L68.1319 34.5754L67.6692 34.5754C65.8177 37.6357 62.4577 39.6812 58.62 39.6812L41.0051 39.6812Z" fill="#0B0BCA"/>
<path d="M54.3924 27.9405L54.3924 37.3939L57.5631 37.3939C63.4001 37.3939 68.132 32.662 68.132 26.825L68.132 16.6084L67.6463 16.6084C64.7699 21.8205 60.0506 25.8825 54.3924 27.9405Z" fill="#0B0BCA"/>
</svg>
