<svg width="85" height="93" viewBox="0 0 85 93" fill="none" xmlns="http://www.w3.org/2000/svg">
<path d="M67.8031 20.5164L67.8031 6.59815L11.0834 6.59815C5.24641 6.59815 0.514564 11.33 0.514564 17.167L0.514565 25.9744L0.773347 25.9744C2.57477 22.7199 6.04334 20.5164 10.0266 20.5164L67.8031 20.5164Z" fill="#0B0BCA"/>
<path d="M54.4159 36.722L54.4159 22.8038L11.0834 22.8038C5.24642 22.8038 0.514565 27.5356 0.514565 33.3727L0.514565 42.1801L0.773348 42.1801C2.57477 38.9255 6.04334 36.722 10.0266 36.722L54.4159 36.722Z" fill="#0B0BCA"/>
<path d="M41.0286 52.9276L41.0286 39.0094L11.0834 39.0094C5.24642 39.0094 0.514566 43.7412 0.514566 49.5783L0.514566 58.3857L0.773348 58.3857C2.57477 55.1311 6.04334 52.9276 10.0266 52.9276L41.0286 52.9276Z" fill="#0B0BCA"/>
<path d="M27.6414 69.1332L27.6414 55.215L11.0835 55.215C5.24642 55.215 0.514566 59.9469 0.514566 65.7839L0.514567 74.239L0.97732 74.239C2.82879 71.1788 6.1888 69.1332 10.0266 69.1332L27.6414 69.1332Z" fill="#0B0BCA"/>
<path d="M14.2541 80.8739L14.2541 71.4206L11.0834 71.4206C5.24641 71.4206 0.514556 76.1524 0.514556 81.9895L0.514557 92.2061L1.00017 92.2061C3.87661 86.9939 8.59593 82.9319 14.2541 80.8739Z" fill="#0B0BCA"/>
<path d="M17.0673 71.6897L17.0673 85.6079L73.787 85.6079C79.624 85.6079 84.3559 80.8761 84.3559 75.039L84.3559 66.2316L84.0971 66.2316C82.2957 69.4862 78.8271 71.6897 74.8439 71.6897L17.0673 71.6897Z" fill="#0B0BCA"/>
<path d="M30.4545 55.4841L30.4545 69.4023L73.787 69.4023C79.624 69.4023 84.3559 64.6704 84.3559 58.8334L84.3559 50.026L84.0971 50.026C82.2957 53.2805 78.8271 55.4841 74.8439 55.4841L30.4545 55.4841Z" fill="#0B0BCA"/>
<path d="M43.8418 39.2784L43.8418 53.1967L73.787 53.1967C79.624 53.1967 84.3559 48.4648 84.3559 42.6278L84.3559 33.8204L84.0971 33.8204C82.2957 37.0749 78.8271 39.2784 74.8439 39.2784L43.8418 39.2784Z" fill="#0B0BCA"/>
<path d="M57.2291 23.0728L57.2291 36.991L73.787 36.991C79.624 36.991 84.3559 32.2592 84.3559 26.4221L84.3559 17.967L83.8931 17.967C82.0416 21.0273 78.6816 23.0728 74.8439 23.0728L57.2291 23.0728Z" fill="#0B0BCA"/>
<path d="M70.6163 11.3321L70.6163 20.7855L73.787 20.7855C79.624 20.7855 84.3559 16.0536 84.3559 10.2166L84.3559 0L83.8703 5.79083e-09C80.9938 5.21212 76.2745 9.27413 70.6163 11.3321Z" fill="#0B0BCA"/>
</svg>
